inDegrees=yes
name=ik_S51_A08_T02
DataType=double
version=3
OpenSimVersion=4.3-2021-08-27-4bc7ad9
endheader
time	pelvis_tilt	pelvis_list	pelvis_rotation	pelvis_tx	pelvis_ty	pelvis_tz	hip_flexion_r	hip_adduction_r	hip_rotation_r	knee_angle_r	knee_angle_r_beta	ankle_angle_r	subtalar_angle_r	mtp_angle_r	hip_flexion_l	hip_adduction_l	hip_rotation_l	knee_angle_l	knee_angle_l_beta	ankle_angle_l	subtalar_angle_l	mtp_angle_l	lumbar_extension	lumbar_bending	lumbar_rotation	arm_flex_r	arm_add_r	arm_rot_r	elbow_flex_r	pro_sup_r	wrist_flex_r	wrist_dev_r	arm_flex_l	arm_add_l	arm_rot_l	elbow_flex_l	pro_sup_l	wrist_flex_l	wrist_dev_l
0	0	0	0	0	0.9399999999999999	0	0	0	0	0	0	0	0	0	0	0	0	0	0	0	0	0	0	0	0	0	0	0	0	89.99999999963507	0	0	0	0	0	0	89.99999999869995	0	0
0.02	-4.822872946967399	0.05756302721503483	19.8977061988742	0	0.9399999999999999	0	3.425777207742608	-1.605191610266236	-1.15325140358104	5.265882639212272	0.09190699007786281	0	0	0	3.425777207742608	-1.605191610266236	-1.15325140358104	5.265882639212272	0.09190699007786281	0	0	0	-3.473767007216463	-0.620185962493526	1.958189315234113	11.01037591980149	-15.52772534929586	-14.20466840671886	71.79688728572744	122.0291442593552	0	0	23.67429952947661	-0.7288860960589505	-25.17340195056232	16.72878550366647	84.88731036294594	0	0
0.04	-4.028600408856052	-0.458582006492433	21.47513992611563	0	0.9399999999999999	0	34.30474225329272	-13.83640820209544	-11.37622137060991	37.44887794224115	0.6536062212695869	0	0	0	34.30474225329272	-13.83640820209544	-11.37622137060991	37.44887794224115	0.6536062212695869	0	0	0	-4.01183650920273	0.2512967462879657	0.4780419947983356	10.98208349775097	-15.523149560606	-14.24045803544464	71.7893360808625	122.0373095188743	0	0	23.68974608502599	-0.7145025398452701	-25.18266970684603	16.67159784400994	85.15382034980792	0	0
0.06	-4.0286777192215	-0.4632563690008248	21.49937148666938	0	0.9399999999999999	0	34.30725669366804	-13.83291402064312	-11.37547233338627	37.45178579333675	0.6536569728453628	0	0	0	34.30725669366804	-13.83291402064312	-11.37547233338627	37.45178579333675	0.6536569728453628	0	0	0	-4.013698490264186	0.2471646460564652	0.4777156042821191	10.98804790775571	-15.50689184611277	-14.2615866770888	71.78315886232458	122.0733378397793	0	0	23.74336855550799	-0.7516688445594366	-25.18892096383052	16.60344412493726	85.34217981238456	0	0
0.08	-4.026216519329118	-0.4578005813689265	21.51446483681349	0	0.9399999999999999	0	34.32185137053479	-13.81901671037995	-11.37185064915535	37.46913386635441	0.6539597538383974	0	0	0	34.32185137053479	-13.81901671037995	-11.37185064915535	37.46913386635441	0.6539597538383974	0	0	0	-4.009387729932615	0.2520310001876455	0.4797628730001574	10.98252577695336	-15.52612956432268	-14.24522731300943	71.7907762740096	122.0468305101548	0	2.155227684594804e-35	23.74861773567267	-0.767425293695951	-25.17936972463348	16.63561161581188	85.36011301738648	0	2.155227684594804e-35
0.1	-4.024308830920852	-0.446334427145504	21.52037475826484	0	0.9399999999999999	0	34.32911011839293	-13.81392809870896	-11.37028146026366	37.47803698352316	0.654115142546683	0	0	0	34.32911011839293	-13.81392809870896	-11.37028146026366	37.47803698352316	0.654115142546683	0	0	0	-4.003414182901488	0.2625310713540951	0.4786697375428135	10.96247446472242	-15.54722116838919	-14.24222186331762	71.78620588500945	122.0606727320396	0	0	23.75814509528344	-0.7746586410922797	-25.20490614295461	16.57231726928241	85.52032871875117	0	0
0.12	-4.011207380172724	-0.4438359763521474	21.5156075062443	0	0.9399999999999999	0	34.3381294085737	-13.80345965686462	-11.36782296183049	37.48861136161032	0.6542997002606545	0	0	0	34.3381294085737	-13.80345965686462	-11.36782296183049	37.48861136161032	0.6542997002606545	0	0	0	-3.990278043771001	0.2606254227889288	0.4769447030480663	10.93545803968628	-15.53394170546929	-14.22581833726142	71.78262054571832	122.0649290358255	0	0	23.73749647018226	-0.8016838705143603	-25.20270791143489	16.56395213290654	85.58320241519213	0	0
0.14	-4.020425567926642	-0.4498708518937785	21.51406222853563	0	0.9399999999999999	0	34.36646827416179	-13.7751395181291	-11.36063046467765	37.52216780866127	0.6548853707469648	0	0	0	34.36646827416179	-13.7751395181291	-11.36063046467765	37.52216780866127	0.6548853707469648	0	0	0	-4.00079336288888	0.2596049176577436	0.4796430119498373	10.96639039349706	-15.53500169025859	-14.21607681593321	71.80686415042203	122.0027768158621	0	0	23.71478854414087	-0.8138587394186449	-25.17405117800236	16.69335797428345	85.5840459327035	0	0
0.16	-4.010254904745368	-0.4390045297882676	21.49744776393594	0	0.9399999999999999	0	34.36790498997603	-13.77687925093588	-11.36066566593564	37.52424459554094	0.6549216175158773	0	0	0	34.36790498997603	-13.77687925093588	-11.36066566593564	37.52424459554094	0.6549216175158773	0	0	0	-3.987303404116454	0.265915621931525	0.4820307769941649	10.96212101671425	-15.54001501418724	-14.19210044267298	71.80040646068807	122.0421827752164	0	0	23.70202572048213	-0.8092140789245146	-25.14354959699746	16.6037587329045	85.59747155669888	0	0
0.18	-4.01126031920128	-0.4382658501575224	21.49399852494071	0	0.9399999999999999	0	34.37913119062538	-13.76688045889033	-11.35797219085563	37.53768513835197	0.6551561992411852	0	0	0	34.37913119062538	-13.76688045889033	-11.35797219085563	37.53768513835197	0.6551561992411852	0	0	0	-3.987861833715539	0.2673722953377202	0.4845464985618129	10.95285459683041	-15.5443062606601	-14.18924645518394	71.79273705624421	122.0531173950446	0	0	23.69987023372371	-0.8203894561580577	-25.11926410566275	16.60842612598048	85.61095745156352	0	0
